# xmcd
#
# Track frame offsets:
#	150
#	9027
#	22925
#	31567
#	51147
#	64762
#	76715
#	83737
#	91622
#	105500
#	116702
#	128970
#
# Disc length: 1853
#
# Revision: 3
# Processed by: cddbd v1.5.1PL0 Copyright (c) Steve Scherf et al.
# Submitted via: CDex 1.51
# Normalized: r2:DSETVAR1,TDELIM( - ),TSWAP
#
DISCID=75073b0c
DTITLE=Various Artist - A Gospel Christmas Night
DYEAR=1994
DGENRE=Christmas
TTITLE0=Jack Greene - I'LL Be Home For Christmas
TTITLE1=David Houston - Silent Night, Holy Night
TTITLE2=Melba Montgomerey - Oh Christmas Tree
TTITLE3=Nat Stuckey - Little Drummer Boy
TTITLE4=Jeannie Seely - Silver Bells
TTITLE5=Nat Stuckey - Oh Come All Ye Faithful
TTITLE6=Sandy Posey - We Wish You A Merry Christmas
TTITLE7=Sandy Posey - I Heard The Bells On Christmas Day
TTITLE8=David Houston - God Rest Ye Merry Gentlemen
TTITLE9=Melba Mongomerey - Hark The Herald Angels Sing
TTITLE10=Jan Howard - Oh Little Town Of Bethlehem
TTITLE11=David Houston - Away In A Manger
EXTD=YEAR: 1994
EXTT0=
EXTT1=
EXTT2=
EXTT3=
EXTT4=
EXTT5=
EXTT6=
EXTT7=
EXTT8=
EXTT9=
EXTT10=
EXTT11=
PLAYORDER=
